<?xml version="1.0" encoding="utf-8"?>
<!-- Generator: Adobe Illustrator 26.0.2, SVG Export Plug-In . SVG Version: 6.00 Build 0)  -->
<svg version="1.1" id="图层_1_x5F_复制" xmlns="http://www.w3.org/2000/svg" xmlns:xlink="http://www.w3.org/1999/xlink"
	 x="0px" y="0px" viewBox="0 0 25 25" style="enable-background:new 0 0 25 25;" xml:space="preserve">
<style type="text/css">
	.st0{fill:#FFFFFF;}
</style>
<circle class="st0" cx="12.36" cy="12.59" r="12.05"/>
<g id="图层_2_x5F_复制">
	<path d="M18.69,15.8c-0.22-0.84,0.19-1.73,0.97-2.08c0.57-0.26,1.18-0.63,1.43-1.09c0.49-0.91,0.69-3.54-0.77-5.59
		c0-0.05-2.66-3.53-9.1-1.77C10.3,5.53,9.43,4.61,9.37,3.65c-0.04-0.6,0.23-1.24,1.21-1.72c0.09-0.04,0.18-0.08,0.27-0.1
		c0.87-0.26,5.42-0.89,9.22,1.69c3.8,2.58,3.5,7.26,3.3,8.39c-0.19,1.13-1.53,3.57-3.21,4.75C19.32,17.24,18.9,16.59,18.69,15.8z"/>
</g>
<g>
	<path d="M7.83,5.36c0.11,0,0.22,0,0.33,0c0.2,0.2,0.43,0.37,0.58,0.6c0.51,0.75,0.99,1.52,1.48,2.28c0.08,0.13,0.16,0.19,0.33,0.16
		c1.18-0.18,2.35-0.18,3.53,0c0.15,0.02,0.23-0.01,0.31-0.14c0.49-0.77,0.98-1.55,1.5-2.3c0.15-0.23,0.39-0.4,0.59-0.59
		c0.09,0,0.18,0,0.28,0c0.31,0.15,0.45,0.44,0.55,0.75c0.48,1.41,0.97,2.82,1.46,4.23c0.05,0.14,0.14,0.28,0.24,0.38
		c0.82,0.8,1.46,1.7,1.86,2.73c0.16,0.42,0.29,0.86,0.37,1.32c0.1,0.55,0.12,1.11,0.18,1.7c0.2,0,0.41,0,0.63,0
		c0.29,0,0.49,0.17,0.48,0.41c-0.01,0.23-0.2,0.38-0.48,0.38c-0.25,0-0.51,0-0.74,0c-0.12,0.41-0.22,0.77-0.34,1.18
		c0.39,0,0.76-0.01,1.13,0c0.26,0.01,0.44,0.19,0.43,0.41c-0.01,0.22-0.19,0.38-0.45,0.39c-0.29,0-0.59,0.03-0.88,0
		c-0.46-0.05-0.82,0.03-1.03,0.49c-0.05,0.1-0.15,0.19-0.23,0.27c-0.97,1.06-2.17,1.74-3.52,2.16c-2.91,0.92-5.81,0.89-8.68-0.17
		c-1.43-0.53-2.66-1.35-3.55-2.62C4.13,19.3,4,19.25,3.91,19.25c-0.42-0.01-0.84-0.02-1.27,0c-0.25,0.01-0.43-0.06-0.55-0.28
		c0-0.09,0-0.18,0-0.28c0.14-0.2,0.33-0.26,0.57-0.25c0.32,0.01,0.65,0,1,0c-0.07-0.21-0.13-0.38-0.18-0.54
		c-0.06-0.21-0.06-0.51-0.2-0.6c-0.16-0.11-0.44-0.05-0.67-0.03c-0.24,0.01-0.41-0.07-0.52-0.28c0-0.09,0-0.18,0-0.28
		c0.3-0.42,0.77-0.14,1.15-0.27c0-0.05,0.01-0.1,0.01-0.14c-0.02-2.23,0.82-4.1,2.42-5.63c0.08-0.08,0.14-0.19,0.17-0.3
		c0.49-1.41,0.98-2.82,1.46-4.23C7.42,5.83,7.56,5.55,7.83,5.36z M8.32,13.65c-0.19,0.01-0.39,0.01-0.57,0.04
		c-0.65,0.1-1.23,0.34-1.5,1.01c-0.35,0.9,0.07,2.04,0.82,2.62c0.73,0.56,1.59,0.66,2.47,0.41c0.47-0.13,0.87-0.38,1.16-0.78
		c0.64-0.89,0.52-1.89-0.31-2.6C9.79,13.84,9.08,13.67,8.32,13.65z M16.33,13.61c-0.71,0.06-1.38,0.2-1.95,0.62
		c-1.31,0.97-1.04,2.56,0.16,3.26c0.86,0.5,1.78,0.5,2.63,0.07c0.9-0.46,1.35-1.28,1.32-2.31c-0.02-0.69-0.38-1.19-1.04-1.41
		C17.09,13.73,16.7,13.69,16.33,13.61z"/>
	<path d="M9.89,15.74c0.01,0.51-0.15,0.96-0.49,1.33c-0.73,0.81-1.91,0.58-2.41-0.44c-0.33-0.67-0.28-1.36,0.13-1.99
		C7.74,13.69,9,13.7,9.58,14.68C9.77,14.99,9.85,15.31,9.89,15.74C9.86,15.75,9.89,15.74,9.89,15.74z"/>
	<path d="M17.28,15.68c0.04,0.77-0.36,1.46-1.05,1.79c-0.62,0.29-1.32-0.05-1.71-0.58c-0.48-0.66-0.46-1.63,0.02-2.3
		c0.62-0.87,1.79-0.88,2.38,0.02C17.12,14.92,17.22,15.19,17.28,15.68C17.25,15.69,17.28,15.68,17.28,15.68z"/>
</g>
</svg>
